<?xml version="1.0" encoding="utf-8"?>
<!-- Generator: Adobe Illustrator 26.3.1, SVG Export Plug-In . SVG Version: 6.00 Build 0)  -->
<svg version="1.1" id="Layer_1" xmlns="http://www.w3.org/2000/svg" xmlns:xlink="http://www.w3.org/1999/xlink" x="0px" y="0px"
	 viewBox="0 0 1440 900" style="enable-background:new 0 0 1440 900;" xml:space="preserve">
<style type="text/css">
	.st0{display:none;}
	.st1{clip-path:url(#SVGID_00000137107316831876762090000017495417811128423322_);fill:#FFF1D0;}
	.st2{clip-path:url(#SVGID_00000137107316831876762090000017495417811128423322_);fill:#06AED5;}
	.st3{clip-path:url(#SVGID_00000137107316831876762090000017495417811128423322_);fill:#086788;}
</style>
<g class="st0">
	
		<image style="display:inline;overflow:visible;enable-background:new    ;" width="1279" height="641" id="b13lMa_00000046308628481877929100000017933826989198479800_" xlink:href="F6FC99BC00CBDBE5.jpeg"  transform="matrix(1.1245 0 0 1.0008 2.1783 471.8454)">
	</image>
</g>
<g>
	<defs>
		<rect id="SVGID_1_" x="1.5" y="1.2" width="1436.8" height="899"/>
	</defs>
	<clipPath id="SVGID_00000119083158309710597660000012231640362040178835_">
		<use xlink:href="#SVGID_1_"  style="overflow:visible;"/>
	</clipPath>
	
		<rect x="1.2" y="0.6" style="clip-path:url(#SVGID_00000119083158309710597660000012231640362040178835_);fill:#FFF1D0;" width="1437.8" height="898.5"/>
	<path style="clip-path:url(#SVGID_00000119083158309710597660000012231640362040178835_);fill:#06AED5;" d="M-139.2,687.5
		c0,0,29.9-18.9,31.3-26.5c0,0,61.2,80.4,162.7-1c0,0,20.9,95.5,104.5-3.8c0,0,56.7,95.5,128.4,0c0,0,61.2,90.8,144.8-3.8
		c0,0,62.7,81.3,144.8,5.7c0,0,41.8,89.8,138.8,1.9c0,0,53.8,83.2,161.2-1c0,0,14.9,98.3,104.5-2.8c0,0,56.7,99.3,126.9,0
		c0,0,56.7,91.7,143.3-2.8c0,0,70.2,83.2,147.8,4.7c0,0,35.8,85.1,135.9,4.7c0,0,58.2,80.4,162.7-3.8c0,0,13.4,102.1,104.5-2.8
		c0,0,62.7,100.2,125.4,0c0,0,62.7,95.5,146.3-5.7c0,0,37.3,48.2,58.2,37.8l0.2,215.4H-137.1L-139.2,687.5z"/>
	<path style="clip-path:url(#SVGID_00000119083158309710597660000012231640362040178835_);fill:#086788;" d="M-143.7,775.5
		c0,0,46.3-1.9,89.6-38.8c0,0,10.5,97.4,106-1c0,0,46.3,100.2,125.4-1.9c0,0,74.7,90.8,144.8-4.7c0,0,68.7,84.2,143.3,6.6
		c0,0,47.8,87.9,137.4,3.8c0,0,61.2,81.3,165.7-1c0,0,11.9,97.4,104.5-3.8c0,0,44.8,101.2,128.4,1c0,0,64.2,87.9,143.3-4.7
		c0,0,71.7,80.4,138.8,5.7c0,0,50.8,83.2,141.8,3.8c0,0,64.2,77.5,162.7-2.8c0,0,16.4,97.4,106-4.7c0,0,56.7,101.2,125.4,1
		c0,0,49.3,91.7,146.3-3.8c0,0,58.2,83.2,143.3,6.6c0,0,19.4,31.2,26.9,28.4l-2.8,138.8H-137.1L-143.7,775.5z"/>
	<path style="clip-path:url(#SVGID_00000119083158309710597660000012231640362040178835_);fill:#06AED5;" d="M-139.2,836.9
		c0,0,46.3,69,112-19.8c0,0,55.2,89.8,146.3-2.8c0,0,67.2,74.7,138.9,5.7c0,0,64.2,81.3,141.8,1.9c0,0,53.8,81.3,164.2,0
		c0,0,9,98.3,104.5-3.8c0,0,55.2,101.2,125.4-1.9c0,0,53.8,89.8,146.3-2.8c0,0,71.7,83.2,141.8,5.7c0,0,50.8,85.1,140.3,2.8
		c0,0,61.2,80.4,162.7,0c0,0,16.4,98.3,104.5-4.7c0,0,55.2,102.1,126.9,0c0,0,55.2,92.7,144.8-2.8c0,0,79.1,80.4,143.3,5.7
		c0,0,35.8,83.2,137.4,4.7c0,0,59.7,53.9,92.6,29.3l-1.3,50H-137.1L-139.2,836.9z"/>
</g>
</svg>
