<?xml version="1.0" encoding="utf-8"?>
<!-- Generator: Adobe Illustrator 26.3.1, SVG Export Plug-In . SVG Version: 6.00 Build 0)  -->
<svg version="1.1" id="Layer_1" xmlns="http://www.w3.org/2000/svg" xmlns:xlink="http://www.w3.org/1999/xlink" x="0px" y="0px"
	 viewBox="0 0 1224 792" style="enable-background:new 0 0 1224 792;" xml:space="preserve">
<style type="text/css">
	.st0{clip-path:url(#SVGID_00000010302475670464240540000008446730194480322216_);fill:#00AED5;enable-background:new    ;}
	.st1{clip-path:url(#SVGID_00000010302475670464240540000008446730194480322216_);fill:none;}
	.st2{fill:#0F6889;enable-background:new    ;}
	.st3{fill:#FFFFFF;}
	.st4{fill:#00AED5;enable-background:new    ;}
</style>
<g>
	<defs>
		<path id="SVGID_1_" d="M393.87,191c0,0-177.7,8.29-330.55,137.83l73.65,59.96l-6.66,6.66L48.89,391c0,0,48.85,85.86,235.38,154.7
			c0,0,45.89,17.76,111.03,22.21c0,0,50.33,27.39,108.81,27.39c0,0,16.28-5.92-8.88-14.06c0,0-17.22-6.83,1.6-10.92
			c0,0,114.18-3.27,171.48-25.37c0,0,74.48,57.7,172.29,80.62c0,0,23.33,5.32-11.05-17.19c-34.38-22.51-69.98-71.21-69.98-71.21
			s-4.5-18.83,8.18-26.19c0,0,151.42-73.26,205.03-79.39l31-2.71c0,0,104.46,176.64,165.44,185.65c0,0,7.87,6.7-10.64-24.96
			c-18.06-30.89-27.14-162.28-27.14-162.28l-1.2-36.88c-0.65-19.87,0.24-39.76,2.72-59.49c6-47.81,18.45-136.54,30.12-154.69
			c0,0,14.8-17.12-13.03-3.61c-23.42,11.37-57.57,58.37-67.91,73.39c-2.09,3.03-4.23,5.98-6.46,8.91
			c-12.3,16.18-54.25,73.33-67.12,116.47l0,0l-36.19-6.08l-117.86-56.07l-119.09-61.39c0,0-30.69-22.51-11.46-43.79
			c19.23-21.28,75.3-81.85,75.3-81.85s6.55-10.23-28.24,3.27c-34.79,13.51-76.53,41.74-76.53,41.74l-60.57,43.79l-63.43-16.37
			c0,0-42.15-17.6-46.25-33.97C524.25,160.65,506.88,152.92,393.87,191z"/>
	</defs>
	<clipPath id="SVGID_00000034792909995102904830000016355028426438487949_">
		<use xlink:href="#SVGID_1_"  style="overflow:visible;"/>
	</clipPath>
	
		<path style="clip-path:url(#SVGID_00000034792909995102904830000016355028426438487949_);fill:#00AED5;enable-background:new    ;" d="
		M276.03,567.53c-9.33,0-16.68-5.45-22.04-16.38c-5.36-10.92-8.04-27.95-8.04-51.12V221.48c4.58-8.54,10.2-15.14,16.85-19.79
		c6.65-4.65,13.48-6.97,20.48-6.97c4.84,0,9.57,1.42,14.19,4.27c4.62,2.85,8.73,7.17,12.32,12.96c3.58,5.8,6.46,13.15,8.62,22.07
		s3.24,19.37,3.24,31.33v155.8c-2.16,0.38-4.47,1.33-6.93,2.85c-2.46,1.52-4.76,3.42-6.87,5.7c-2.12,2.28-3.89,4.79-5.31,7.54
		c-1.43,2.76-2.14,5.55-2.14,8.4c0,2.1,0.24,3.76,0.71,4.99c0.47,1.24,1.06,2.33,1.75,3.27c4.84-8.92,10.37-15.09,16.59-18.51
		s13.39-5.13,21.52-5.13h30.72c1.3,4.94,2.46,10.11,3.5,15.53c1.04,5.4,1.92,10.92,2.66,16.51c0.73,5.6,1.32,11.16,1.75,16.66
		c0.43,5.51,0.65,10.64,0.65,15.38c0,6.83-0.24,13.81-0.71,20.93c-0.48,7.12-1.15,13.91-2.01,20.37c-0.86,6.46-1.9,12.44-3.11,17.94
		c-1.21,5.51-2.59,10.16-4.15,13.96H276.03z"/>
	
		<path style="clip-path:url(#SVGID_00000034792909995102904830000016355028426438487949_);fill:#00AED5;enable-background:new    ;" d="
		M480.19,189.32c4.7-0.36,13.15-0.55,19.56-0.48c4.47,0.05,7.84-0.59,16.39,1.2c7.11,1.49,7.74,11.13,9.89,20.72
		c2.14,9.6,3.22,20.82,3.22,33.68V414.7c0,26.34-1.76,49.6-5.28,69.81c-3.52,20.21-8.52,37.16-15.01,50.83
		c-6.48,13.68-12.12,18.92-21.27,25.85c-9.15,6.94-22.92,7.59-34.17,7.59c-11.94,0-28.01-1.07-37.37-8.02
		c-9.36-6.93-10.46-11.7-16.94-25.27c-6.48-13.58-11.42-30.47-14.81-50.68c-3.39-20.21-5.09-43.58-5.09-70.12l-0.26-222.86
		c4.12-7.75,9.45-9.96,15.46-15.68c6.01-5.71-18.91,14.08-11.6,14.08c0,0,16.97,1.36,26.59,0.74c5.55-0.36,31.05-1.77,32.15,0.86
		c2.95,7.07,4.76,11.99,6.52,22.6c1.76,10.62,2.64,23.17,2.64,37.67v178.52c0.86,1.63,1.93,2.45,3.22,2.45c1.2,0,2.1-0.71,2.7-2.15
		c0.6-1.42,0.9-4.38,0.9-8.88V251.8c0-6.74-0.06-12.66-0.19-17.76s-0.34-9.7-0.64-13.78c-0.3-4.08-0.71-7.86-1.22-11.33
		c-0.51-3.47-1.31-14-2-17.47c10.25-1.05,1.47-0.32,10.25-1.05C471.95,189.72,471.93,189.96,480.19,189.32z"/>
	
		<path style="clip-path:url(#SVGID_00000034792909995102904830000016355028426438487949_);fill:#00AED5;enable-background:new    ;" d="
		M652.85,264.83c0.99,3.51,1.91,7.41,2.75,11.67c0.84,4.27,1.53,8.71,2.07,13.31c0.53,4.6,0.95,9.21,1.26,13.81
		c0.3,4.61,0.46,8.92,0.46,12.94c0,17.24-1.53,30.05-4.59,38.42c-3.06,8.37-7.26,12.56-12.61,12.56h-46.22
		c-2.06,0.93-4.24,2.43-4.24,7.28c0,0.34,0,1.01,0,2.01c0,1,0.08,1.68,0.23,2.01h54.82c0.69,2.51,1.34,5.49,1.95,8.91
		c0.61,3.44,1.13,7.03,1.55,10.8c0.42,3.76,0.76,7.62,1.03,11.55c0.27,3.93,0.4,7.66,0.4,11.17c0,10.05-0.46,19.05-1.38,27
		c-0.92,7.95-2.14,14.53-3.67,19.71h-24.89c-6.5,0-11.87,0.38-16.11,1.13c-4.24,0.76-7.59,1.72-10.04,2.89
		c-2.45,1.17-4.17,2.47-5.16,3.89c-1,1.43-1.49,2.89-1.49,4.4c0,1.34,0.1,2.6,0.29,3.77s0.63,2.17,1.32,3.01
		c1.91-1.34,3.86-2.51,5.85-3.52c1.99-1,4.2-1.8,6.65-2.39c2.45-0.58,5.18-1.04,8.2-1.38c3.02-0.33,6.52-0.5,10.49-0.5h32.23
		c0.84,2.68,1.68,5.65,2.52,8.91c0.84,3.27,1.59,7.03,2.24,11.3c0.65,4.27,1.19,9.17,1.61,14.69c0.42,5.52,0.63,11.89,0.63,19.08
		c0,4.52-0.15,9.34-0.46,14.44c-0.31,5.11-0.76,10.17-1.38,15.2c-0.61,5.02-1.42,9.79-2.41,14.31c-1,4.52-2.18,8.46-3.56,11.81
		h-85.9c-4.51,0-8.72-1.21-12.61-3.64c-3.9-2.43-7.3-6.19-10.21-11.3c-2.91-5.1-5.2-11.55-6.88-19.34c-1.68-7.78-2.52-17.12-2.52-28
		V287.94c0-8.04,4.24-13.9,12.73-17.58c8.49-3.68,21.45-5.52,38.88-5.52H652.85z"/>
	
		<path style="clip-path:url(#SVGID_00000034792909995102904830000016355028426438487949_);fill:#00AED5;enable-background:new    ;" d="
		M738.29,517.22c0,1.36-2.13,2.37-3.36,2.96c-12.65,6.03-12.48,6.01-23.43,10.12c-7.92,2.97-8.76,2.79-18.07,6.24
		c-4.3,1.6-13.91,4.08-18.17,1.7c-4.26-2.39,0,0,0,0c-3.24-4.88-4.04-8.12-5.96-15.59c-1.93-7.47-2.89-16.28-2.89-26.43l0.1-227.47
		c0-3.42-2.05-6.5-5.2-7.83l-34.13-14.31c-2.46-1.03-4.3-3.19-4.96-5.78c-1.61-6.38-1.41-5.97-1.67-16.91
		c-0.26-10.94,3.9-18.42,3.9-30.57c0-9.15,5.45,18.35,6.11,10.89c0.66-7.47,0.86-6.67,1.93-12.54c1.06-5.88,2.28-11.05,3.63-15.54
		c0.6-1.99,1.21-3.83,1.82-5.53c1.22-3.4-12.07,39.21-8.47,39.21l105.96,37.99c10.24,2.34,22.19,3.4,23.05,7.29
		c1.61,7.25,13.49-67.84,14.7-58.2c1.6,12.75,2.4,25.59,2.4,38.54c0,12.15-0.6,22.55-1.78,31.21s-2.83,15.74-4.92,21.21
		c-2.09,5.47-0.75,2.47-2.09,5.47c-1.57,3.53-10.13-1.63-15.22-3.11l-24.65-9.48c-5.58-2.15-6.68-3.58-9.56,1.02
		c-0.46,0.73,2.89,1.63,4.98,2.25c1.79,0.54,6.13,2.47,10.16,3.52l4.59,1.66c4.6,2.17,3.34,6.6,3.34,11.28L738.29,517.22z"/>
	
		<path style="clip-path:url(#SVGID_00000034792909995102904830000016355028426438487949_);fill:#00AED5;enable-background:new    ;" d="
		M840.13,304.01c3.46,1.75,12.34,7.42,15.9,9.14c3.31,1.6,4.12,1.97,4.12,1.97s4.53,1.1,5.57,5.16c1.32,5.18,0.3,16.28,0.3,23.09
		v90.15c0,13.95-1.37,26.27-4.11,36.97c-2.74,10.7-6.64,19.67-11.68,26.92c-5.05,7.24-11.13,12.7-18.25,16.38
		c-7.12,3.68-15.06,5.52-23.82,5.52c-9.29,0-17.58-1.84-24.87-5.52c-7.29-3.67-13.45-9.11-18.5-16.29
		c-5.05-7.19-8.89-16.13-11.53-26.84c-2.64-10.7-3.96-23.08-3.96-37.13V317.91c3.21-4.1,7.15-7.67,11.83-10.7
		c4.68-3.02,9.86-4.54,15.55-4.54c4.21,0,8.04,0.89,11.48,2.67c3.44,1.78,6.42,4.52,8.93,8.19c2.51,3.68,4.45,8.33,5.82,13.95
		c1.37,5.62,2.06,12.27,2.06,19.95v94.53c0.67,0.87,1.5,1.3,2.51,1.3c0.93,0,1.64-0.38,2.11-1.14c0.47-0.75,0.7-2.32,0.7-4.7v-90.15
		c0-3.57-0.05-6.7-0.15-9.4c-0.1-2.7,0.07-6.19-0.17-8.36c-0.23-2.16,0-9.22-0.4-11.06c-0.4-1.84,0.75-20.16,0.21-22
		c3.68-4.97,6.33-3.62,11.61-1.92C830.31,297.4,833.59,300.7,840.13,304.01z"/>
	
		<path style="clip-path:url(#SVGID_00000034792909995102904830000016355028426438487949_);fill:#00AED5;enable-background:new    ;" d="
		M939.66,319.43c1.78-1.87,3.77-3.52,5.99-4.92c2.22-1.41,4.55-2.58,7.01-3.52s4.98-1.64,7.58-2.11c2.59-0.47,5.12-0.7,7.58-0.7
		c3.82,0,7.56,0.45,11.21,1.34c3.65,0.89,6.89,2.41,9.72,4.54c2.83,2.13,5.1,4.99,6.81,8.57c1.7,3.58,2.56,8.06,2.56,13.43v121.09
		c0,3.84-0.77,7.08-2.3,9.72c-1.54,2.64-3.58,4.75-6.14,6.33c-2.56,1.58-5.5,2.71-8.8,3.39c-3.31,0.68-6.74,1.02-10.29,1.02
		c-2.18,0-4.39-0.15-6.6-0.45c-2.22-0.3-4.32-0.75-6.3-1.34c-1.98-0.6-3.82-1.28-5.53-2.04c-1.71-0.77-3.17-1.62-4.4-2.56
		c-2.93-4.69-5.58-9.21-7.93-13.55c-2.35-4.35-4.52-8.52-6.5-12.53c-1.98-4.01-3.82-7.82-5.53-11.44
		c-1.71-3.62-5.79-16.35-7.36-19.59c-1.16,0.17-1.79,1.1-2.2,1.83c-0.41,0.72-0.53,1.9-0.53,2.92c0,1.28-0.14,1.08,0.4,2.32
		c0.55,1.23,3.88,12.72,4.77,14.51l12.8,25.83v6.78c-1.02,0.85-2.32,1.83-3.89,2.94c-1.57,1.11-3.5,2.15-5.78,3.13
		c-2.29,0.98-4.93,1.81-7.93,2.49c-3,0.68-6.45,1.02-10.34,1.02c-4.44,0-8.53-0.55-12.29-1.66c-3.75-1.11-7-2.75-9.72-4.92
		c-2.73-2.17-4.85-4.88-6.35-8.12c-1.5-3.24-2.25-6.99-2.25-11.25V323.78c0-2.13,0.75-4.15,2.25-6.07c1.5-1.92,3.55-3.56,6.14-4.92
		c2.59-1.36,5.63-2.45,9.11-3.26c3.48-0.81,7.2-1.21,11.16-1.21c4.5,0,8.67,0.68,12.49,2.04c3.82,1.36,6.72,3.03,8.7,4.99
		c1.5,2.39,3.14,5.22,4.91,8.5c1.77,3.28,3.65,6.91,5.63,10.87c1.98,3.96,4.04,8.18,6.19,12.66c2.15,4.47,7.91,19.64,10.16,24.33
		c0.68,0,1.6-1.19,2.03-2.11c0.36-0.77,0.7-1.93,0.7-3.21c0-0.94-1.31-4.62-1.85-5.94c-0.55-1.32-3.42-8.92-4.03-10.2l-11.06-23.78
		V319.43z"/>
	
		<path style="clip-path:url(#SVGID_00000034792909995102904830000016355028426438487949_);fill:#00AED5;enable-background:new    ;" d="
		M1010.13,238.51c3.78-4.63,24.94-17.7,29.63-21.46c4.69-3.76,9.63-6.9,14.8-9.42c5.18-2.52,10.53-4.42,16.05-5.7
		c5.52-1.28,11.05-1.85,16.58-1.71c7.31,0.18,16.84-29.24,23.94-26.41c7.11,2.83,49.58-12.82,55.35-7
		c5.77,5.82-14.35,39.47-10.35,48.55c3.99,9.1-6.78,44.63-5.59,57.14l25.33,268.34c-4.6,11.05,11.58,69.24,3.62,76.23
		c-7.97,6.99-39.27-4.4-51.17-4.7c-5.25-0.13-13.92-30.38-18.46-32.39c-4.55-2.01-5.86-10.16-9.29-13.93
		c-3.42-3.78-6.21-8.48-8.37-14.12c-2.16-5.63-3.47-12.25-3.93-19.83l-2.22-34.69c2.91-0.11,5.81-0.75,8.7-1.9
		c2.89-1.16,5.51-2.61,7.85-4.35c2.34-1.74,4.27-3.72,5.78-5.96s2.3-4.49,2.35-6.76c0.08-3.02-0.47-5.5-1.64-7.42
		c-1.75,2.41-3.78,4.58-6.07,6.52c-2.3,1.93-4.71,3.53-7.23,4.79c-2.52,1.26-5.03,2.2-7.53,2.79c-2.5,0.6-4.83,0.87-6.99,0.81
		c-4.03-0.1-7.61-0.71-10.72-1.83c-3.12-1.12-5.83-2.46-8.13-4.04c-2.31-1.57-4.28-3.27-5.92-5.11c-1.64-1.84-3-3.63-4.09-5.36
		c-0.4,0.94-0.76,2.01-1.07,3.24c-0.31,1.22-0.49,2.59-0.53,4.1c-0.07,2.84,0.59,5.46,1.98,7.86c1.39,2.41,3.29,4.54,5.68,6.39
		c2.39,1.87,5.15,3.39,8.26,4.61c3.11,1.21,6.4,2.05,9.86,2.52c0.23,13.25,0.6,23.81,1.1,31.68c0.51,7.87,1.06,12.85,1.67,14.94
		c-0.93,3.2-2.68,6.61-5.25,10.23c-2.58,3.62-5.76,7-9.54,10.12c-3.79,3.13-8.07,5.66-12.86,7.63c-4.79,1.96-9.86,2.87-15.2,2.74
		c-6.66-0.17-12.9-1.84-18.73-5.02c-5.83-3.17-10.88-7.51-15.16-13.01c-4.27-5.5-7.62-12.12-10.05-19.84
		c-2.43-7.73-3.53-16.31-3.29-25.78c0.05-2.07,0.15-4.2,0.3-6.38c0.15-2.17,16.31-7.32,16.65-9.58L1010.13,238.51z M1089.48,377.42
		c-0.75-11.37-1.34-20.47-1.77-27.3c-0.44-6.82-0.92-11.99-1.44-15.5c-0.52-3.51-1.12-5.8-1.8-6.86c-0.68-1.05-1.53-1.6-2.56-1.62
		c-0.66-0.02-1.27,0.16-1.84,0.52c-0.57,0.37-12.36,31.94-12.84,32.3l0,0c0.35,0.77,16.04,27.58,16.74,27.98
		c0.69,0.4,1.32,0.6,1.89,0.61c0.84,0.02,1.65-0.19,2.41-0.65c0.76-0.46,1.34-0.87,1.72-1.24L1089.48,377.42z"/>
	<path style="clip-path:url(#SVGID_00000034792909995102904830000016355028426438487949_);fill:none;" d="M139.88,314.59
		c-0.54,0-1.18,0.08-1.93,0.23c-0.75,0.16-1.34,0.39-1.77,0.7c0.11,1.24,0.16,2.55,0.16,3.93c0,1.39,0,2.86,0,4.4v21.78
		c0.32,0.31,0.83,0.5,1.53,0.58c0.69,0.08,1.15,0.12,1.37,0.12c2.57,0,4.4-1.16,5.48-3.47c1.07-2.32,1.61-6.1,1.61-11.35v-1.39
		c0-5.41-0.46-9.34-1.37-11.82C144.03,315.83,142.35,314.59,139.88,314.59z"/>
	<path style="clip-path:url(#SVGID_00000034792909995102904830000016355028426438487949_);fill:none;" d="M139.88,399.63
		c-0.54,0-1.18,0.08-1.93,0.24c-0.75,0.16-1.34,0.39-1.77,0.69c0.11,1.24,0.16,2.55,0.16,3.94c0,1.39,0,2.86,0,4.4v24.09
		c0.32,0.31,0.83,0.5,1.53,0.58c0.69,0.08,1.15,0.12,1.37,0.12c2.57,0,4.4-0.96,5.48-2.89c1.07-1.93,1.61-5.52,1.61-10.78v-4.4
		c0-5.41-0.46-9.42-1.37-12.05C144.03,400.94,142.35,399.63,139.88,399.63z"/>
	
		<path style="clip-path:url(#SVGID_00000034792909995102904830000016355028426438487949_);fill:#00AED5;enable-background:new    ;" d="
		M241.17,406.93c-1.93-9.04-4.89-17.07-8.86-24.1c-3.27-5.79-7.32-10.66-12.04-14.72c-6.19,6.27-14.42,10.13-23.49,10.13
		c-19.18,0-34.73-17.1-34.73-38.2s15.55-38.2,34.73-38.2c15.94,0,29.34,11.83,33.42,27.93c0.59-2.86,1.11-5.77,1.47-8.8
		c0.54-4.55,0.8-9.07,0.8-13.56c0-11.73-1.74-22.97-5.23-33.71c-3.49-10.74-9.02-20.19-16.59-28.38
		c-7.57-8.19-17.37-14.72-29.39-19.58c-12.03-4.86-26.57-7.3-43.64-7.3c-13.85,0-26.28,1.31-37.28,3.94
		c-11.01,2.62-20.32,5.87-27.94,9.73c-7.62,3.86-13.45,7.99-17.47,12.39c-4.03,4.4-6.04,8.38-6.04,11.94v212.47
		c0,17.14,2.6,29.85,7.81,38.12c5.21,8.26,13.5,13.48,24.88,15.64c6.44,1.23,14.11,2.12,23.03,2.66c8.91,0.54,19.48,0.81,31.72,0.81
		c17.07,0,32.29-1.62,45.65-4.87c13.36-3.24,24.64-8.46,33.82-15.64c9.18-7.18,16.18-16.57,21.01-28.15
		c4.83-11.58,7.25-25.72,7.25-42.4C244.07,425.35,243.1,415.97,241.17,406.93z M146.32,420.02c0,5.26-0.54,8.85-1.61,10.78
		c-1.08,1.94-2.9,2.89-5.48,2.89c-0.22,0-0.67-0.03-1.37-0.12c-0.7-0.07-1.21-0.27-1.53-0.58V408.9c0-1.54,0-3.02,0-4.4
		c0-1.39-0.06-2.7-0.16-3.94c0.43-0.31,1.02-0.54,1.77-0.69c0.75-0.16,1.39-0.24,1.93-0.24c2.47,0,4.16,1.32,5.07,3.94
		c0.91,2.63,1.37,6.64,1.37,12.05V420.02z M146.32,331.51c0,5.25-0.54,9.04-1.61,11.35c-1.08,2.32-2.9,3.47-5.48,3.47
		c-0.22,0-0.67-0.03-1.37-0.12c-0.7-0.08-1.21-0.27-1.53-0.58v-21.78c0-1.54,0-3.01,0-4.4c0-1.39-0.06-2.7-0.16-3.93
		c0.43-0.31,1.02-0.54,1.77-0.7c0.75-0.15,1.39-0.23,1.93-0.23c2.47,0,4.16,1.24,5.07,3.71c0.91,2.47,1.37,6.41,1.37,11.82V331.51z"
		/>
</g>
<path class="st2" d="M531.24,191.88c0,0,11.84,54.62,7.79,68.29c0,0,37.35-8.44,77.55-5.98c0,0-7.62-27.45-4.58-44.66
	C612,209.53,571.73,189.35,531.24,191.88z"/>
<path class="st2" d="M319.36,203.42c0,0,13.58,27.99,12.9,61.36c-0.68,33.37,0.61,153.24,0.61,153.24s18.11-6.13,35.13,0
	l-0.19-222.83C367.82,195.18,325.17,200.13,319.36,203.42z"/>
<ellipse class="st3" cx="196.49" cy="339.75" rx="34.36" ry="37.17"/>
<circle class="st2" cx="196.49" cy="339.75" r="20.72"/>
<path class="st2" d="M395.3,574.66c0,0,67.46,6.1,101.53,2.4c0,0-9.36,11.1,6.65,15.61s4.52,9.44,4.52,9.44s-50.9,0.41-80.86-9.85
	S395.3,574.66,395.3,574.66z"/>
<path class="st2" d="M673.06,549.51c15.24-3.88,54.28-14.85,77.71-30.86c2.05-1.4,4.75,0.1,4.75,2.58
	c-0.01,5.77,2.3,14.36,5.71,19.21c0,0,7.37,16.53,45.92,43.74l43.63,32.11c2.4,1.77,1.17,5.62-1.82,5.57
	c-6.84-0.11-20.55-2.54-47.98-12.08c-51.35-17.86-89.12-26.27-128.96-54.78C669.91,553.48,670.54,550.15,673.06,549.51z"/>
<path class="st2" d="M639.89,206.14c15.29,3.69,54.46,14.19,78.08,29.91c2.06,1.37,4.75-0.16,4.72-2.64
	c-0.08-5.77,2.13-14.39,5.48-19.28c0,0,7.16-16.62,45.39-44.3l43.23-32.64c2.38-1.8,1.1-5.63-1.88-5.55
	c-6.84,0.19-20.52,2.79-47.83,12.66c-51.13,18.48-88.79,27.35-128.29,56.35C636.69,202.21,637.36,205.53,639.89,206.14z"/>
<path class="st2" d="M312.06,194.62c30.51-6.1,104.33-18.93,156.76-12.09c3.92,0.51,6.03-4.36,2.98-6.86
	c-12.56-10.31-31.23-28.28-42.68-51.61c-0.81-1.65-2.6-2.53-4.38-2.09c-12.36,3.05-60.58,17.4-115.98,65.88
	C305.77,190.46,308.16,195.4,312.06,194.62z"/>
<path class="st2" d="M801.19,273.18l13.11,8.1c1.79,1.11,4.15,0.21,4.75-1.81l5.24-17.62c0.81-2.71-2.03-5.05-4.54-3.75l-18.36,9.51
	C799.19,268.76,799.08,271.88,801.19,273.18z"/>
<path class="st2" d="M839.71,294.87l13.11,8.1c1.79,1.11,4.15,0.21,4.75-1.81l5.24-17.62c0.81-2.71-2.03-5.05-4.54-3.75l-18.36,9.51
	C837.72,290.45,837.6,293.56,839.71,294.87z"/>
<path class="st2" d="M881.28,312.82l13.11,8.1c1.79,1.11,4.15,0.21,4.75-1.81l5.24-17.62c0.81-2.71-2.03-5.05-4.54-3.75l-18.36,9.51
	C879.28,308.4,879.16,311.51,881.28,312.82z"/>
<path class="st2" d="M919.85,331.4l13.11,8.1c1.79,1.11,4.15,0.21,4.75-1.81l5.24-17.62c0.81-2.71-2.03-5.05-4.54-3.75l-18.36,9.51
	C917.86,326.98,917.74,330.1,919.85,331.4z"/>
<path class="st2" d="M956.8,350.28l14.07,6.3c1.92,0.86,4.14-0.34,4.47-2.42L978.2,336c0.44-2.79-2.68-4.74-5-3.12l-16.94,11.86
	C954.23,346.16,954.53,349.26,956.8,350.28z"/>
<path class="st2" d="M801.91,503.24l13.79-6.89c1.89-0.94,4.15,0.16,4.57,2.23l3.63,18.02c0.56,2.77-2.48,4.85-4.86,3.33
	l-17.42-11.13C799.52,507.46,799.69,504.35,801.91,503.24z"/>
<path class="st2" d="M840.44,485.12l13.79-6.89c1.89-0.94,4.15,0.16,4.57,2.23l3.63,18.02c0.56,2.77-2.48,4.85-4.86,3.33
	l-17.42-11.13C838.05,489.34,838.21,486.23,840.44,485.12z"/>
<path class="st2" d="M881.3,470.32l13.79-6.89c1.89-0.94,4.15,0.16,4.57,2.23l3.63,18.02c0.56,2.77-2.48,4.85-4.86,3.33
	l-17.42-11.13C878.91,474.54,879.08,471.43,881.3,470.32z"/>
<path class="st2" d="M920.58,456.08l13.79-6.89c1.89-0.94,4.15,0.16,4.57,2.23l3.63,18.02c0.56,2.77-2.48,4.85-4.86,3.33
	l-17.42-11.13C918.19,460.3,918.35,457.19,920.58,456.08z"/>
<path class="st2" d="M958.21,440.5l14.97-3.66c2.05-0.5,4.01,1.08,3.96,3.19l-0.45,18.38c-0.07,2.82-3.49,4.18-5.48,2.17
	l-14.52-14.71C954.94,444.09,955.79,441.09,958.21,440.5z"/>
<polygon class="st4" points="740.56,294.66 743.17,279.43 720.18,262.98 711.77,281.77 "/>
</svg>
